<?xml version="1.0" encoding="UTF-8" standalone="no"?>
<!-- Created with Inkscape (http://www.inkscape.org/) -->

<svg
   width="60.116203mm"
   height="77.03019mm"
   viewBox="0 0 60.116203 77.03019"
   version="1.1"
   id="svg1"
   xml:space="preserve"
   sodipodi:docname="IBeam.svg"
   inkscape:version="1.2.2 (b0a8486541, 2022-12-01)"
   xmlns:inkscape="http://www.inkscape.org/namespaces/inkscape"
   xmlns:sodipodi="http://sodipodi.sourceforge.net/DTD/sodipodi-0.dtd"
   xmlns="http://www.w3.org/2000/svg"
   xmlns:svg="http://www.w3.org/2000/svg"
   xmlns:rdf="http://www.w3.org/1999/02/22-rdf-syntax-ns#"
   xmlns:cc="http://creativecommons.org/ns#"
   xmlns:dc="http://purl.org/dc/elements/1.1/"><title
     id="title243">IBeam</title><sodipodi:namedview
     id="namedview12"
     pagecolor="#ffffff"
     bordercolor="#000000"
     borderopacity="0.25"
     inkscape:showpageshadow="2"
     inkscape:pageopacity="0.0"
     inkscape:pagecheckerboard="0"
     inkscape:deskcolor="#d1d1d1"
     inkscape:document-units="mm"
     showgrid="false"
     inkscape:zoom="0.81061292"
     inkscape:cx="13.569979"
     inkscape:cy="145.56886"
     inkscape:window-width="2560"
     inkscape:window-height="1044"
     inkscape:window-x="0"
     inkscape:window-y="0"
     inkscape:window-maximized="1"
     inkscape:current-layer="svg1" /><defs
     id="defs1" /><g
     id="layer1"
     transform="translate(-53.607064,-54.649628)"><path
       id="path1"
       style="fill:#06989a;fill-opacity:1;stroke-width:0.264583"
       d="m 55.430208,73.05859 v 0.190169 c -0.0081,0.769463 0.02213,1.539599 -0.02584,2.307869 -0.02175,0.193622 -0.04153,0.387573 -0.0615,0.58136 l 13.099459,5.055506 -0.520898,42.418596 -11.710914,-2.52542 c -0.0054,0.35533 0.006,0.71119 5.17e-4,1.0666 -0.0062,0.40512 -0.07453,0.74652 -0.185518,1.02422 -0.01596,0.31306 -0.06564,0.62342 -0.143144,0.93845 l 30.256034,7.56388 0.259933,-2.08205 -13.79244,-4.68446 0.260449,-43.459367 14.573271,2.082043 v -2.602425 z" /><path
       id="path3"
       style="fill:#057c7d;fill-opacity:1;stroke-width:0.264583"
       d="m 68.962716,112.16163 -12.744959,8.66614 c -7e-6,1.7e-4 8e-6,3.4e-4 0,5.1e-4 -0.0035,0.0789 -0.0059,0.1577 -0.0072,0.23668 l 11.971363,2.54713 z" /><path
       style="fill:#04595a;fill-opacity:1;stroke-width:0.264583"
       d="m 85.357513,129.07721 27.324817,-22.64056 -12.23111,-5.46496 -28.886232,23.6815 z"
       id="path4" /><path
       style="fill:#05a4a7;fill-opacity:1;stroke-width:0.264583"
       d="M 100.9717,100.71146 103.05358,71.564988 87.439403,83.275623 72.605933,81.193731 72.08546,124.39296 Z"
       id="path5" /><path
       style="fill:#057c7d;fill-opacity:1;stroke-width:0.264583"
       d="m 87.69964,83.53586 25.76339,-18.737016 0.26024,-3.122835 -26.804339,19.257486 z"
       id="path14" /><path
       style="fill:#057c7d;fill-opacity:1;stroke-width:0.264583"
       d="M 86.658695,81.193732 113.72327,62.456718 85.097278,54.649626 55.430337,73.386642 Z"
       id="path18" /><path
       style="fill:#057c7d;fill-opacity:1;stroke-width:0.264583"
       d="m 85.357513,131.41934 27.324807,-22.64056 -0.26023,-2.8626 -27.585049,23.16103 z"
       id="path25" /></g><metadata
     id="metadata241"><rdf:RDF><cc:Work
         rdf:about=""><cc:license
           rdf:resource="http://creativecommons.org/licenses/by-sa/4.0/" /><dc:title>IBeam</dc:title><dc:creator><cc:Agent><dc:title>Morten Vajhøj</dc:title></cc:Agent></dc:creator></cc:Work><cc:License
         rdf:about="http://creativecommons.org/licenses/by-sa/4.0/"><cc:permits
           rdf:resource="http://creativecommons.org/ns#Reproduction" /><cc:permits
           rdf:resource="http://creativecommons.org/ns#Distribution" /><cc:requires
           rdf:resource="http://creativecommons.org/ns#Notice" /><cc:requires
           rdf:resource="http://creativecommons.org/ns#Attribution" /><cc:permits
           rdf:resource="http://creativecommons.org/ns#DerivativeWorks" /><cc:requires
           rdf:resource="http://creativecommons.org/ns#ShareAlike" /></cc:License></rdf:RDF></metadata></svg>
