<?xml version="1.0" encoding="UTF-8" standalone="no"?>
<!-- Created with Inkscape (http://www.inkscape.org/) -->

<svg
   width="58.497719mm"
   height="59.239796mm"
   viewBox="0 0 58.497719 59.239796"
   version="1.1"
   id="svg1"
   xml:space="preserve"
   sodipodi:docname="LAngle.svg"
   inkscape:version="1.2.2 (b0a8486541, 2022-12-01)"
   xmlns:inkscape="http://www.inkscape.org/namespaces/inkscape"
   xmlns:sodipodi="http://sodipodi.sourceforge.net/DTD/sodipodi-0.dtd"
   xmlns="http://www.w3.org/2000/svg"
   xmlns:svg="http://www.w3.org/2000/svg"
   xmlns:rdf="http://www.w3.org/1999/02/22-rdf-syntax-ns#"
   xmlns:cc="http://creativecommons.org/ns#"
   xmlns:dc="http://purl.org/dc/elements/1.1/"><title
     id="title187">L-Angle</title><sodipodi:namedview
     id="namedview10"
     pagecolor="#ffffff"
     bordercolor="#000000"
     borderopacity="0.25"
     inkscape:showpageshadow="2"
     inkscape:pageopacity="0.0"
     inkscape:pagecheckerboard="0"
     inkscape:deskcolor="#d1d1d1"
     inkscape:document-units="mm"
     showgrid="false"
     inkscape:zoom="1.0540493"
     inkscape:cx="42.692499"
     inkscape:cy="120.48772"
     inkscape:window-width="2560"
     inkscape:window-height="1044"
     inkscape:window-x="0"
     inkscape:window-y="0"
     inkscape:window-maximized="1"
     inkscape:current-layer="svg1" /><defs
     id="defs1" /><g
     id="layer1"
     transform="translate(-64.792426,-89.79917)"><path
       id="path1"
       style="fill:#057c7d;stroke-width:0.264583"
       d="m 67.211918,104.1523 c -0.252977,0.12021 -0.502785,0.24704 -0.747241,0.38447 0.286524,-0.12946 0.574051,-0.25688 0.861446,-0.38447 z m 1.58595,0 c -0.311766,0.19732 -0.627715,0.38748 -0.948263,0.56896 -0.74051,0.33587 -1.485686,0.65952 -2.216919,1.01699 -0.277964,0.13615 -0.559318,0.26488 -0.840258,0.39429 l 0.348815,35.19113 23.700363,7.55561 c 0.422783,-0.45998 0.862514,-0.90388 1.331701,-1.31723 0.171088,-0.12715 0.344922,-0.25007 0.521415,-0.36845 l 0.208773,-2.92592 -22.081856,-6.99234 V 104.1523 Z m 21.829158,43.98905 c -0.0016,0.001 -0.003,0.002 -0.0047,0.004 0.0016,-9.4e-4 0.0031,-0.002 0.0047,-0.003 z" /><path
       id="path2"
       style="fill:#08c7c9;fill-opacity:1;stroke-width:0.264583"
       d="m 123.29015,115.92936 -0.0558,0.045 c 0.0186,0.0372 0.0371,0.0744 0.0558,0.11162 z m -0.64234,0.5178 -33.584512,27.08465 -0.366903,5.50715 c 0.467275,-0.51672 0.953766,-1.01602 1.476912,-1.47691 0.461425,-0.34294 0.942866,-0.65381 1.442806,-0.93379 l 31.674037,-26.28263 v -2.65772 c -0.0619,-0.11841 -0.12664,-0.23559 -0.1943,-0.35192 -0.14676,-0.29717 -0.29873,-0.59243 -0.44804,-0.88883 z" /><path
       style="fill:#08c7c9;fill-opacity:1;stroke-width:0.264583"
       d="m 89.063195,144.26766 33.858735,-27.2342 -15.45725,-5.52045 -39.37918,25.76208 z"
       id="path3" /><path
       id="path4"
       style="fill:#07a2a3;fill-opacity:1;stroke-width:0.264583"
       d="m 109.30496,89.79917 -0.007,0.0026 c 0.002,0.0064 0.004,0.0127 0.006,0.01912 z m -0.67128,0.280603 -39.812041,16.648597 v 30.54697 l 39.378991,-26.13019 0.97255,-18.797815 c -0.0248,-0.08515 -0.0497,-0.17021 -0.0744,-0.255282 -0.15408,-0.670291 -0.2874,-1.347661 -0.46509,-2.01228 z" /><path
       id="path5"
       style="fill:#067171;fill-opacity:1;stroke-width:0.264583"
       d="m 107.83269,89.79917 -39.509212,14.64562 c -2.02e-4,1.2e-4 -3.15e-4,3.9e-4 -5.17e-4,5.1e-4 -0.156648,0.094 -0.314544,0.18605 -0.473356,0.27596 -0.74051,0.33587 -1.485686,0.65952 -2.216919,1.01699 -0.0089,0.004 -0.01798,0.009 -0.02687,0.0129 l 3.58376,0.97772 39.378994,-15.825395 z" /></g><metadata
     id="metadata185"><rdf:RDF><cc:Work
         rdf:about=""><cc:license
           rdf:resource="http://creativecommons.org/licenses/by-sa/4.0/" /><dc:creator><cc:Agent><dc:title>Morten Vajhøj</dc:title></cc:Agent></dc:creator><dc:title>L-Angle</dc:title></cc:Work><cc:License
         rdf:about="http://creativecommons.org/licenses/by-sa/4.0/"><cc:permits
           rdf:resource="http://creativecommons.org/ns#Reproduction" /><cc:permits
           rdf:resource="http://creativecommons.org/ns#Distribution" /><cc:requires
           rdf:resource="http://creativecommons.org/ns#Notice" /><cc:requires
           rdf:resource="http://creativecommons.org/ns#Attribution" /><cc:permits
           rdf:resource="http://creativecommons.org/ns#DerivativeWorks" /><cc:requires
           rdf:resource="http://creativecommons.org/ns#ShareAlike" /></cc:License></rdf:RDF></metadata></svg>
