<?xml version="1.0" encoding="UTF-8" standalone="no"?>
<!-- Created with Inkscape (http://www.inkscape.org/) -->

<svg
   width="81.189873mm"
   height="68.269737mm"
   viewBox="0 0 81.189873 68.269737"
   version="1.1"
   id="svg1"
   xml:space="preserve"
   sodipodi:docname="RectTube.svg"
   inkscape:version="1.2.2 (b0a8486541, 2022-12-01)"
   xmlns:inkscape="http://www.inkscape.org/namespaces/inkscape"
   xmlns:sodipodi="http://sodipodi.sourceforge.net/DTD/sodipodi-0.dtd"
   xmlns="http://www.w3.org/2000/svg"
   xmlns:svg="http://www.w3.org/2000/svg"
   xmlns:rdf="http://www.w3.org/1999/02/22-rdf-syntax-ns#"
   xmlns:cc="http://creativecommons.org/ns#"
   xmlns:dc="http://purl.org/dc/elements/1.1/"><title
     id="title187">Rectangular Tube</title><sodipodi:namedview
     id="namedview10"
     pagecolor="#ffffff"
     bordercolor="#000000"
     borderopacity="0.25"
     inkscape:showpageshadow="2"
     inkscape:pageopacity="0.0"
     inkscape:pagecheckerboard="0"
     inkscape:deskcolor="#d1d1d1"
     inkscape:document-units="mm"
     showgrid="false"
     inkscape:zoom="0.91463171"
     inkscape:cx="64.506838"
     inkscape:cy="129.01368"
     inkscape:window-width="2560"
     inkscape:window-height="1044"
     inkscape:window-x="0"
     inkscape:window-y="0"
     inkscape:window-maximized="1"
     inkscape:current-layer="svg1" /><defs
     id="defs1" /><g
     id="layer1"
     transform="translate(-46.859156,-92.007306)"><path
       id="path5"
       style="fill:#2dbdbd;fill-opacity:1;stroke-width:0.264583"
       d="m 50.207271,126.55248 c -0.513021,0.4198 -1.000944,0.86688 -1.475879,1.3317 -0.571595,0.54877 -0.995937,1.21402 -1.542541,1.78646 -0.109863,0.14168 -0.219172,0.28408 -0.329696,0.42581 v 5.2e-4 l 0.556555,19.76468 c 0.510147,0.66931 0.93599,1.39862 1.396298,2.10272 0.07514,0.13111 0.150117,0.26218 0.225309,0.39326 l 34.212382,7.91941 h 2.720247 c 0.340294,-0.23775 0.675144,-0.48334 1.00149,-0.73949 0.08366,-0.0624 0.167523,-0.12476 0.251664,-0.18655 v -22.07566 l -5.152657,-4.41678 z" /><path
       id="path1"
       style="fill:#178b8b;fill-opacity:1;stroke-width:0.264583"
       d="m 126.73438,103.12652 -39.879216,33.41243 -0.727088,23.62698 c 0.285946,-0.20295 0.567677,-0.412 0.84336,-0.62838 0.196827,-0.14681 0.394861,-0.29243 0.594795,-0.43512 h 5.17e-4 l 39.198122,-36.79155 c 0.0158,-0.52315 0.208,-1.06918 0.53382,-1.57355 0.17982,-0.2059 0.36838,-0.40299 0.56637,-0.59014 0.0653,-0.12718 0.13107,-0.24884 0.18397,-0.35399 l -0.27853,-14.21205 c -0.055,-0.12607 -0.1068,-0.25331 -0.154,-0.38292 -0.31259,-0.68231 -0.62795,-1.36547 -0.88212,-2.07171 z" /><path
       id="path2"
       style="fill:#106161;fill-opacity:1;stroke-width:0.264583"
       d="m 124.46837,99.094727 -42.765863,34.500223 4.78472,3.68039 c 31.978153,-27.57748 38.932353,-32.70362 40.437843,-33.64859 -0.14577,-0.36303 -0.27899,-0.73104 -0.39067,-1.10691 -0.24042,-0.89925 -0.45565,-1.80509 -0.70022,-2.703194 -0.16419,-0.121274 -0.33192,-0.238716 -0.50178,-0.35295 -0.26864,-0.164684 -0.56162,-0.279357 -0.86403,-0.368969 z" /><path
       id="path3"
       style="fill:#0d4f4f;fill-opacity:1;stroke-width:0.264583"
       d="m 96.423572,92.007304 -44.430363,33.056376 -5.17e-4,5.2e-4 c -0.270262,0.36116 -0.656631,0.71531 -1.175639,1.03663 -0.05984,0.037 -0.119994,0.0741 -0.179834,0.1111 -0.03129,0.0239 -0.06244,0.0482 -0.09353,0.0724 0.664252,0.21951 4.899104,1.35732 31.895211,6.94273 l 42.80669,-33.814007 c -0.57614,-0.324833 -1.25309,-0.440466 -1.89188,-0.577742 -1.20296,-0.258518 -1.99961,-0.786646 -2.41122,-1.379244 z" /><path
       style="fill:#114343;fill-opacity:1;stroke-width:0.264583"
       d="m 50.420074,149.42007 v -19.13754 l 32.018586,6.99256 0.36803,20.24164 z"
       id="path4" /></g><metadata
     id="metadata185"><rdf:RDF><cc:Work
         rdf:about=""><cc:license
           rdf:resource="http://creativecommons.org/licenses/by-sa/4.0/" /><dc:creator><cc:Agent><dc:title>Morten Vajhøj</dc:title></cc:Agent></dc:creator><dc:title>Rectangular Tube</dc:title></cc:Work><cc:License
         rdf:about="http://creativecommons.org/licenses/by-sa/4.0/"><cc:permits
           rdf:resource="http://creativecommons.org/ns#Reproduction" /><cc:permits
           rdf:resource="http://creativecommons.org/ns#Distribution" /><cc:requires
           rdf:resource="http://creativecommons.org/ns#Notice" /><cc:requires
           rdf:resource="http://creativecommons.org/ns#Attribution" /><cc:permits
           rdf:resource="http://creativecommons.org/ns#DerivativeWorks" /><cc:requires
           rdf:resource="http://creativecommons.org/ns#ShareAlike" /></cc:License></rdf:RDF></metadata></svg>
