<?xml version="1.0" encoding="UTF-8" standalone="no"?>
<!-- Created with Inkscape (http://www.inkscape.org/) -->

<svg
   width="68.048668mm"
   height="76.45945mm"
   viewBox="0 0 68.048668 76.45945"
   version="1.1"
   id="svg1"
   xml:space="preserve"
   xmlns:xlink="http://www.w3.org/1999/xlink"
   xmlns="http://www.w3.org/2000/svg"
   xmlns:svg="http://www.w3.org/2000/svg"><defs
     id="defs1"><linearGradient
       id="linearGradient12"><stop
         style="stop-color:#147c7c;stop-opacity:1;"
         offset="0"
         id="stop12" /><stop
         style="stop-color:#41dfdf;stop-opacity:1;"
         offset="0.60252368"
         id="stop13" /></linearGradient><linearGradient
       id="linearGradient10"><stop
         style="stop-color:#137474;stop-opacity:1;"
         offset="0.44164038"
         id="stop10" /><stop
         style="stop-color:#4cebeb;stop-opacity:1;"
         offset="0.97476339"
         id="stop11" /></linearGradient><linearGradient
       xlink:href="#linearGradient10"
       id="linearGradient11"
       x1="63.301044"
       y1="129.39417"
       x2="112.47117"
       y2="129.39417"
       gradientUnits="userSpaceOnUse" /><linearGradient
       xlink:href="#linearGradient12"
       id="linearGradient13"
       x1="85.382904"
       y1="144.67178"
       x2="126.62896"
       y2="144.67178"
       gradientUnits="userSpaceOnUse"
       gradientTransform="translate(0.73605948,-1.1040892)" /></defs><g
     id="layer1"
     transform="translate(-57.044603,-108.65952)"><path
       style="fill:#20c9c9;fill-opacity:1;stroke-width:0.264583"
       d="m 88.695166,183.27881 6.624535,-6.62454 1.84015,-6.2565 -0.73606,-7.72863 -3.680299,-5.88847 -6.992564,-6.99257 -10.672863,-3.6803 -9.936803,1.47212 -5.888474,5.52045 -2.208178,6.25651 v 6.62453 l 1.840148,6.2565 4.784387,5.88848 5.152416,4.41636 8.096655,2.57621 z"
       id="path2" /><path
       style="fill:#0d4f4f;fill-opacity:1;stroke-width:0.264583"
       d="m 83.174721,182.91078 5.52045,-2.20818 3.31226,-2.94424 2.20818,-4.04833 0.736063,-5.88847 -1.104093,-4.04833 -1.47212,-3.6803 -3.68029,-4.78438 -4.41636,-3.6803 -6.624537,-2.57621 -6.624534,-0.36803 -7.360594,2.57621 -3.680299,4.78439 -2.208178,7.72862 2.208178,7.3606 3.680299,5.88847 5.152416,3.6803 7.360595,2.94424 z"
       id="path1" /><path
       id="path3"
       style="fill:url(#linearGradient13);stroke-width:0.264583"
       d="m 112.11047,110.32557 c -12.156325,8.60689 -25.991696,40.19858 -25.991696,40.19858 l 8.096664,10.67273 c 0,0 4.275789,9.20962 -0.232027,16.74575 l 30.042609,-44.3482 c 0,0 0.24557,-0.37237 0.60927,-1.03611 -0.0325,-0.23597 -0.0488,-0.49053 -0.046,-0.76326 0.005,-0.51278 0.002,-0.25547 0.009,-0.77153 0.0154,-0.8447 0.0372,-1.68983 0.0987,-2.53266 0.0851,-1.08108 0.20858,-2.15836 0.39429,-3.2272 4.7e-4,-0.003 0.001,-0.005 0.002,-0.008 -0.35182,-0.92364 -0.71266,-1.8463 -0.86196,-2.83083 -0.0402,-0.51573 -0.0546,-1.03241 -0.0692,-1.54926 -0.21398,-0.38429 -0.38035,-0.86398 -0.47335,-1.44332 -0.0478,-0.29753 -0.0218,-0.15376 -0.0785,-0.43098 -0.11844,-0.45688 -0.34835,-0.85452 -0.56431,-1.27176 -0.30578,-0.53456 -0.72374,-1 -1.03198,-1.53428 -0.30781,-0.47463 -0.74279,-0.86485 -1.0883,-1.31206 -0.35054,-0.47529 -0.90283,-0.77353 -1.30793,-1.19734 -0.42794,-0.38378 -0.97467,-0.61664 -1.40095,-1.00511 -0.46627,-0.29658 -0.93856,-0.58063 -1.46658,-0.75809 -0.61425,-0.19126 -1.22262,-0.39173 -1.84381,-0.55966 -0.80867,-0.19871 -1.59228,-0.47027 -2.33113,-0.85938 -0.15471,-0.0589 -0.30946,-0.11835 -0.46405,-0.17776 z" /><path
       id="path4"
       style="fill:url(#linearGradient11);fill-opacity:1;stroke-width:0.264583"
       d="m 106.13254,108.65952 c -0.0363,0.005 -0.073,0.0102 -0.11007,0.015 -0.78832,0.1006 -1.57717,0.13256 -2.37143,0.14676 -0.94989,0.049 -1.90096,0.11382 -2.83962,0.27441 -1.227242,0.21739 -2.441688,0.49679 -3.64009,0.84026 -8.864605,10.40807 -30.916379,36.24874 -33.60105,38.90408 2.032798,-0.93665 15.096415,-2.99969 22.548494,2.42001 0,0 16.601686,-31.3317 26.134836,-40.87916 -0.67835,-0.2604 -1.35605,-0.52457 -2.04587,-0.75138 -0.84542,-0.23354 -1.69903,-0.43207 -2.54506,-0.66404 -0.50844,-0.10561 -1.0175,-0.2191 -1.53014,-0.30592 z m -42.56226,40.18049 c -0.175829,0.081 -0.269234,0.15328 -0.269234,0.21187 0,0.002 5.09e-4,0.004 10e-4,0.006 l 5.17e-4,5.1e-4 v 5.2e-4 l 5.17e-4,5.2e-4 5.17e-4,5.1e-4 h 5.16e-4 l 5.17e-4,5.2e-4 h 5.17e-4 l 5.17e-4,5.2e-4 h 5.16e-4 c 0.02227,0.005 0.112523,-0.0708 0.264067,-0.22066 z" /></g></svg>
