<?xml version="1.0" encoding="UTF-8" standalone="no"?>
<!-- Created with Inkscape (http://www.inkscape.org/) -->

<svg
   width="74.689491mm"
   height="84.44133mm"
   viewBox="0 0 74.689491 84.44133"
   version="1.1"
   id="svg1"
   xml:space="preserve"
   sodipodi:docname="SquareTube.svg"
   inkscape:version="1.2.2 (b0a8486541, 2022-12-01)"
   xmlns:inkscape="http://www.inkscape.org/namespaces/inkscape"
   xmlns:sodipodi="http://sodipodi.sourceforge.net/DTD/sodipodi-0.dtd"
   xmlns="http://www.w3.org/2000/svg"
   xmlns:svg="http://www.w3.org/2000/svg"
   xmlns:rdf="http://www.w3.org/1999/02/22-rdf-syntax-ns#"
   xmlns:cc="http://creativecommons.org/ns#"
   xmlns:dc="http://purl.org/dc/elements/1.1/"><title
     id="title187">Square Tube</title><sodipodi:namedview
     id="namedview10"
     pagecolor="#ffffff"
     bordercolor="#000000"
     borderopacity="0.25"
     inkscape:showpageshadow="2"
     inkscape:pageopacity="0.0"
     inkscape:pagecheckerboard="0"
     inkscape:deskcolor="#d1d1d1"
     inkscape:document-units="mm"
     showgrid="false"
     inkscape:zoom="0.73946806"
     inkscape:cx="31.103439"
     inkscape:cy="159.57417"
     inkscape:window-width="2560"
     inkscape:window-height="1044"
     inkscape:window-x="0"
     inkscape:window-y="0"
     inkscape:window-maximized="1"
     inkscape:current-layer="svg1" /><defs
     id="defs1" /><g
     id="layer1"
     transform="translate(-66.634177,-66.245569)"><path
       id="path4"
       style="fill:#22caca;fill-opacity:1;stroke-width:0.264583"
       d="m 67.616028,103.92131 c -0.292751,0.63771 -0.568347,1.28377 -0.886768,1.90944 -0.03118,0.0613 -0.06284,0.12105 -0.09508,0.17932 l 0.340031,36.74866 c 0.02006,0.0228 0.04008,0.0457 0.05994,0.0687 0.228074,0.28081 0.455446,0.56117 0.684713,0.84026 l 38.108266,7.01921 c 0.42462,-0.40345 0.8572,-0.79772 1.30587,-1.17461 0.63309,-0.49223 1.14286,-1.15169 1.91926,-1.44332 0.002,-7e-4 0.003,-0.001 0.005,-0.002 l 1.35133,-35.81797 -3.31194,-2.944 z" /><path
       id="path1"
       style="fill:#126d6d;fill-opacity:1;stroke-width:0.264583"
       d="m 140.68599,72.913379 -30.64516,37.495381 -1.47226,37.17138 32.7551,-42.32352 V 73.709713 c -0.21151,-0.266014 -0.42518,-0.530977 -0.63768,-0.796334 z" /><path
       id="path2"
       style="fill:#1eb3b3;fill-opacity:1;stroke-width:0.264583"
       d="m 140.14028,72.225049 -32.67552,37.815781 1.47226,2.94452 32.0182,-38.275182 -0.64957,-2.274796 c -0.0552,-0.06996 -0.11051,-0.140087 -0.16537,-0.210323 z" /><path
       id="path3"
       style="fill:#199191;fill-opacity:1;stroke-width:0.264583"
       d="M 105.9925,66.245569 67.641349,103.86601 c -0.04734,0.10267 -0.09395,0.20547 -0.14056,0.30851 l 39.963971,5.86631 32.38665,-37.538795 z" /><path
       style="fill:#0b4040;fill-opacity:1;stroke-width:0.264583"
       d="m 68.453531,142.79554 38.275089,6.99256 1.10409,-37.53903 -39.747209,-6.62454 c 0,0 -0.73606,28.33829 -0.36803,30.17844 0.36803,1.84015 0.73606,6.99257 0.73606,6.99257 z"
       id="path5" /></g><metadata
     id="metadata185"><rdf:RDF><cc:Work
         rdf:about=""><cc:license
           rdf:resource="http://creativecommons.org/licenses/by-sa/4.0/" /><dc:creator><cc:Agent><dc:title>Morten Vajhøj</dc:title></cc:Agent></dc:creator><dc:title>Square Tube</dc:title></cc:Work><cc:License
         rdf:about="http://creativecommons.org/licenses/by-sa/4.0/"><cc:permits
           rdf:resource="http://creativecommons.org/ns#Reproduction" /><cc:permits
           rdf:resource="http://creativecommons.org/ns#Distribution" /><cc:requires
           rdf:resource="http://creativecommons.org/ns#Notice" /><cc:requires
           rdf:resource="http://creativecommons.org/ns#Attribution" /><cc:permits
           rdf:resource="http://creativecommons.org/ns#DerivativeWorks" /><cc:requires
           rdf:resource="http://creativecommons.org/ns#ShareAlike" /></cc:License></rdf:RDF></metadata></svg>
