<?xml version="1.0" encoding="UTF-8" standalone="no"?>
<!-- Created with Inkscape (http://www.inkscape.org/) -->

<svg
   width="82.737068mm"
   height="67.307518mm"
   viewBox="0 0 82.737068 67.307518"
   version="1.1"
   id="svg1"
   xml:space="preserve"
   xmlns="http://www.w3.org/2000/svg"
   xmlns:svg="http://www.w3.org/2000/svg"><defs
     id="defs1" /><g
     id="layer1"
     transform="translate(-43.865021,-76.918306)"><path
       style="fill:#0a3d3d;fill-opacity:1;stroke-width:0.266935"
       d="M 50.098047,132.49071 47.475835,115.56134 88.682021,78.022306 89.431223,95.687733 Z"
       id="path5" /><path
       style="fill:#072626;fill-opacity:1;stroke-width:0.264583"
       d="M 89.063195,139.11524 50.788102,131.38662 88.695165,94.583643 110.04089,98.631969 89.063195,121.08178 Z"
       id="path6" /><path
       id="path1"
       style="fill:#146e6e;fill-opacity:1;stroke-width:0.264583"
       d="m 44.510978,113.39153 c -0.0976,0.2598 -0.200217,0.51802 -0.305924,0.77411 l 1.062467,20.90105 45.182255,8.89455 c 0.06874,-0.0603 0.139426,-0.11888 0.211874,-0.1757 0.08292,-0.0644 0.165691,-0.12854 0.248563,-0.19275 0.358357,-0.39483 0.730727,-0.77665 1.097091,-1.16376 v -21.34702 h -2.944006 l -0.367937,18.03301 -39.011572,-8.09666 -2.208134,-17.29714 z" /><path
       id="path2"
       style="fill:#1a9a9a;fill-opacity:1;stroke-width:0.264583"
       d="m 126.60209,83.542704 -35.698595,37.539306 -0.734839,23.14381 c 0.07195,-0.0721 0.145872,-0.1423 0.221692,-0.21084 l 0.0026,-0.003 35.841232,-40.59597 z" /><path
       style="fill:#116969;fill-opacity:1;stroke-width:0.264583"
       d="m 126.2342,83.910779 -3.31227,-0.73606 -34.962823,38.275091 2.576209,0.36803 z"
       id="path3" /><path
       style="fill:#072626;fill-opacity:1;stroke-width:0.264583"
       d="M 48.211895,131.01859 Z"
       id="path7" /><path
       id="path19"
       style="fill:#167373;fill-opacity:1;stroke-width:0.264583"
       d="M 83.174768,76.918302 44.260347,114.03025 c -0.0567,0.1392 -0.114226,0.27784 -0.172599,0.41599 -0.08266,0.16873 -0.156578,0.34017 -0.222725,0.51367 l 4.347021,1.33738 40.114864,-37.906726 z" /></g></svg>
