<?xml version="1.0" encoding="UTF-8" standalone="no"?>
<!-- Created with Inkscape (http://www.inkscape.org/) -->

<svg
   width="83.165779mm"
   height="73.353752mm"
   viewBox="0 0 83.165779 73.353752"
   version="1.1"
   id="svg1"
   xml:space="preserve"
   xmlns="http://www.w3.org/2000/svg"
   xmlns:svg="http://www.w3.org/2000/svg"><defs
     id="defs1" /><path
     id="path30"
     style="fill:#2d6f6f;fill-opacity:1;stroke-width:0.264583"
     d="m 21.359735,46.954328 -19.5838174,8.92401 c 0.02283,0.23824 0.05362,0.47525 0.08372,0.71313 0.0029,0.0153 0.0055,0.0307 0.0083,0.046 l 19.2313844,5.67097 z" /><g
     id="layer1"
     transform="translate(-67.901483,-76.918212)"><path
       id="path24"
       style="fill:#3d9696;fill-opacity:1;stroke-width:0.264583"
       d="m 67.921436,90.301982 0.0217,0.321944 v 5.17e-4 5.16e-4 5.17e-4 c 0.0062,0.0429 0.01204,0.08576 0.01757,0.128674 0.04204,0.325861 0.06065,0.653739 0.07286,0.981853 0.0027,0.0727 0.0016,0.142157 -0.0026,0.208256 -4.1e-5,6.56e-4 4.1e-5,0.0014 0,0.0021 l 0.150895,2.259293 20.038053,4.683952 0.260449,40.337066 -18.794718,-6.34638 c 0.02173,0.21009 0.04888,0.41943 0.07545,0.62942 0.07406,0.39606 0.131102,0.79435 0.170532,1.19528 0.02847,0.32593 0.04353,0.65278 0.05374,0.97978 l 42.007263,14.49369 c 0.009,-0.004 0.0182,-0.008 0.0274,-0.0119 0.20617,-0.0969 0.41175,-0.19534 0.62115,-0.28525 l -0.21911,-2.84789 -21.859654,-7.80676 0.520381,-39.556235 22.120093,6.245615 v -3.90313 z" /><path
       id="path25"
       style="fill:#2a6565;fill-opacity:1;stroke-width:0.264583"
       d="m 150.51433,125.2213 -38.74286,21.55217 v 3.49849 c 0.0831,-0.0348 0.16611,-0.0692 0.24857,-0.10542 0.21276,-0.1 0.42496,-0.20183 0.6413,-0.29403 0.0661,-0.0195 0.12937,-0.0454 0.19224,-0.0724 h 5.1e-4 l 38.21317,-21.76405 v -2.06034 c -0.11862,-0.17507 -0.23427,-0.35251 -0.34778,-0.53071 -0.0623,-0.0803 -0.13131,-0.15427 -0.20515,-0.22376 z" /><path
       style="fill:#3a9090;fill-opacity:1;stroke-width:0.264583"
       d="m 111.12092,147.16363 39.29568,-21.85985 -18.73702,-6.76614 -42.158285,20.8189 z"
       id="path26" /><path
       style="fill:#296464;fill-opacity:1;stroke-width:0.264583"
       d="M 131.67958,118.53765 V 97.718739 l -18.21654,8.067331 -23.421272,-6.505913 -0.260236,40.076393 z"
       id="path27" /><path
       id="path28"
       style="fill:#317a7a;fill-opacity:1;stroke-width:0.264583"
       d="m 143.86357,89.85343 -30.92111,12.4194 v 3.90363 l 32.00942,-13.011604 -0.19586,-2.740918 c -0.29652,-0.191616 -0.59552,-0.379303 -0.89245,-0.570508 z" /><path
       style="fill:#2d6f6f;fill-opacity:1;stroke-width:0.264583"
       d="M 143.89963,89.799254 99.552044,77.470258"
       id="path43" /><path
       style="fill:#45a9a9;fill-opacity:1;stroke-width:0.276385"
       d="M 144.45167,90.075276 97.743084,76.918214 67.901487,90.274626 113.12724,103.23233 Z"
       id="path44" /></g></svg>
